<?xml version="1.0" encoding="UTF-8"?>
<svg id="a" data-name="Layer 2" xmlns="http://www.w3.org/2000/svg" viewBox="0 0 100 100">
  <defs>
    <style>
      .b {
        fill: #fff;
      }

      .c {
        fill: #f63;
      }

      .d {
        fill: none;
        stroke: #fff;
        stroke-linecap: round;
        stroke-linejoin: round;
        stroke-width: 1.5px;
      }
    </style>
  </defs>
  <rect class="c" width="100" height="100" rx="23.333" ry="23.333"/>
  <rect class="b" x="15" y="21.459" width="70" height="26.667" rx="7.333" ry="7.333"/>
  <g>
    <path class="c" d="M35.453,38.608c0,1.742-2.64,1.742-2.64,0s2.64-1.741,2.64,0Z"/>
    <path class="c" d="M37.872,43.539v-12.813h2.09l.147,1.246c.696-1.008,1.906-1.448,2.933-1.448,2.786,0,4.638,2.072,4.638,4.729,0,2.64-1.668,4.729-4.564,4.729-.953,0-2.365-.293-3.006-1.283v4.839h-2.237Zm7.571-8.285c0-1.411-.953-2.566-2.566-2.566s-2.566,1.155-2.566,2.566,1.045,2.566,2.566,2.566,2.566-1.155,2.566-2.566Z"/>
    <path class="c" d="M58.716,26.95v12.813h-2.09l-.147-1.246c-.697,1.081-1.815,1.448-2.914,1.448-2.658,0-4.656-1.76-4.656-4.729,0-3.116,1.961-4.729,4.601-4.729,.953,0,2.438,.513,2.969,1.448v-5.004h2.236Zm-7.571,8.285c0,1.576,1.137,2.658,2.566,2.658,1.411,0,2.621-1.026,2.621-2.658,0-1.576-1.21-2.64-2.621-2.64-1.43,0-2.566,1.008-2.566,2.64Z"/>
    <path class="c" d="M61.394,39.763v-6.947h-1.687v-1.962h1.687v-.605c0-2.42,1.632-3.538,3.446-3.538,.788,0,1.613,.257,2.346,.733l-.825,1.668c-.477-.312-.917-.477-1.375-.477-.77,0-1.356,.513-1.356,1.613v.605h2.658v1.962h-2.658v6.947h-2.236Z"/>
  </g>
  <line class="d" x1="29.419" y1="58.801" x2="81.086" y2="58.801"/>
  <circle class="b" cx="21.414" cy="58.801" r="2.167"/>
  <line class="d" x1="29.419" y1="67.588" x2="81.086" y2="67.588"/>
  <circle class="b" cx="21.414" cy="67.588" r="2.167"/>
  <line class="d" x1="29.419" y1="76.375" x2="81.086" y2="76.375"/>
  <circle class="b" cx="21.414" cy="76.375" r="2.167"/>
</svg>