<?xml version="1.0" encoding="UTF-8"?>
<svg id="a" data-name="Layer 4" xmlns="http://www.w3.org/2000/svg" viewBox="0 0 100 100">
  <defs>
    <style>
      .b {
        fill: #ff5812;
      }

      .c {
        fill: #fff;
      }

      .d {
        fill: #f63;
      }
    </style>
  </defs>
  <rect class="d" width="100" height="100" rx="23.33" ry="23.33"/>
  <g>
    <path class="c" d="M70,35.41c0,3.72-1.01,7.2-2.78,10.18,0,0,0,0-.02,.03-.02,.03-.03,.06-.05,.09-.65,1.15-5.87,10.59-6.83,19.14-.49,4.38-3.34,4.55-5.76,4.55h-9.12c-2.43,0-5.27-.17-5.76-4.55-.96-8.55-6.18-17.99-6.83-19.14-.02-.04-.04-.07-.05-.09-.01-.02-.02-.03-.02-.03-1.76-2.98-2.78-6.46-2.78-10.18,0-11.04,8.95-20,20-20s20,8.96,20,20Z"/>
    <rect class="c" x="41.67" y="72.02" width="16.67" height="2.33" rx=".67" ry=".67"/>
    <rect class="c" x="44.03" y="76.97" width="11.67" height="2.33" rx=".67" ry=".67"/>
    <path class="b" d="M46.97,70.47c.86-3.55,1.17-7.19,1.4-10.83s.5-7.01-.14-10.49c-.52-2.81-1.7-6.71-4.3-8.31-1.02-.63-2.49-.77-3.35,.19-.8,.89-.71,2.31-.27,3.34,1.27,2.97,4.75,3.3,7.56,3.02,3.33-.33,7.09-1.07,9.86-3.06,1.06-.75,2.13-1.91,2-3.32-.11-1.19-1.17-2.03-2.31-2.19-3.24-.44-4.73,3.04-5.19,5.62-.78,4.37-.92,8.83-.95,13.26s-.19,8.93,.76,13.27c.18,.84,1.47,.48,1.29-.35-.62-2.84-.7-5.73-.71-8.63s-.02-5.9,.09-8.85,.32-5.87,.88-8.74c.23-1.18,.55-2.49,1.43-3.37,.48-.49,1.1-.86,1.79-.91,1.35-.09,1.91,1.1,1.16,2.14-1.52,2.12-5.02,2.86-7.41,3.36s-6,1.22-8.09-.54c-.8-.67-2.15-3.22-.2-3.41,1.41-.13,2.45,1.81,3,2.85,1.26,2.36,1.83,5.05,1.99,7.7,.17,2.82-.11,5.67-.3,8.48-.22,3.15-.54,6.3-1.28,9.38-.2,.83,1.08,1.19,1.29,.35h0Z"/>
    <path class="c" d="M53.53,81.92c0,1.47-1.64,2.67-3.67,2.67s-3.67-1.19-3.67-2.67"/>
  </g>
</svg>