<?xml version="1.0" encoding="UTF-8"?>
<svg id="a" data-name="Layer 1" xmlns="http://www.w3.org/2000/svg" viewBox="0 0 100 100">
  <defs>
    <style>
      .b {
        fill: #fff;
      }

      .c {
        fill: #f63;
      }
    </style>
  </defs>
  <rect class="c" width="100" height="100" rx="23.33" ry="23.33"/>
  <g>
    <path class="b" d="M76.96,31.06l.61,2.47-56.68,14.13-.61-2.47c-.81-3.24,1.16-6.52,4.4-7.33l16.91-4.22c-.14-.57-.04-1.14,.24-1.6,.28-.46,.73-.82,1.3-.96l7.04-1.75c1.13-.28,2.28,.41,2.56,1.54l16.91-4.22c3.24-.81,6.52,1.16,7.33,4.4Z"/>
    <path class="b" d="M85,49.88v3.53c0,1.67-1.35,3.02-3.02,3.02h-2.77v11.06c0,3.34-2.71,6.04-6.04,6.04H26.83c-3.34,0-6.04-2.71-6.04-6.04v-11.06h-2.77c-1.67,0-3.02-1.35-3.02-3.02v-3.53H85Z"/>
  </g>
</svg>